<svg xmlns="http://www.w3.org/2000/svg" width="410" height="404" viewBox="0 0 410 404" fill="none">
  <path d="M399.641 59.5246L215.643 388.545C211.844 395.338 202.084 395.378 198.228 388.618L10.5817 59.5563C6.38087 52.1896 12.6802 43.2665 21.0281 44.7586L205.223 78.6824C206.398 78.8924 207.601 78.8905 208.776 78.6766L389.119 44.8058C397.439 43.2894 403.768 52.1434 399.636 59.5166L399.641 59.5246Z" fill="url(#paint0_linear_2_33)"/>
  <path d="M292.965 1.5744L156.801 28.2552C155.719 28.4673 154.758 29.0484 154.077 29.9003L50.2036 160.255C48.3572 162.548 49.8574 165.81 52.7933 166.046L115.21 171.233C118.355 171.488 121.159 169.104 121.391 165.951L130.333 42.1314C130.59 38.6607 133.8 35.9955 137.259 36.3484L292.556 51.9491C296.063 52.3054 298.795 55.1967 298.723 58.7198L296.541 164.999C296.471 168.449 299.107 171.418 302.553 171.667L363.332 176.109C366.35 176.327 368.751 173.754 368.048 170.811L326.429 3.88055C325.677 0.887072 323.025 -0.673291 319.993 -0.0722234L292.965 1.5744Z" fill="url(#paint1_linear_2_33)"/>
  <defs>
    <linearGradient id="paint0_linear_2_33" x1="6.00017" y1="32.9999" x2="235" y2="344" gradientUnits="userSpaceOnUse">
      <stop stop-color="#41D1FF"/>
      <stop offset="1" stop-color="#BD34FE"/>
    </linearGradient>
    <linearGradient id="paint1_linear_2_33" x1="194.651" y1="8.81818" x2="236.076" y2="292.989" gradientUnits="userSpaceOnUse">
      <stop stop-color="#FFEA83"/>
      <stop offset="0.0833333" stop-color="#FFDD35"/>
      <stop offset="1" stop-color="#FFA800"/>
    </linearGradient>
  </defs>
</svg>
